<mxfile host="app.diagrams.net" modified="2021-10-08T05:17:08.622Z" agent="5.0 (Macintosh; Intel Mac OS X 10_15_7) AppleWebKit/537.36 (KHTML, like Gecko) Chrome/93.0.4577.63 Safari/537.36" etag="ziW8Suc-8cGKBi-RzeYJ" version="15.4.3" type="github">
  <diagram id="fSdKnkM4jwWLLz93tdnN" name="Page-1">
    <mxGraphModel dx="6265" dy="3253" grid="1" gridSize="10" guides="1" tooltips="1" connect="1" arrows="1" fold="1" page="1" pageScale="1" pageWidth="827" pageHeight="1169" math="0" shadow="0">
      <root>
        <mxCell id="0" />
        <mxCell id="1" parent="0" />
        <mxCell id="80u5x54LaO3btrXReR5X-9" value="" style="edgeStyle=orthogonalEdgeStyle;rounded=0;orthogonalLoop=1;jettySize=auto;html=1;entryX=0.5;entryY=0;entryDx=0;entryDy=0;" parent="1" source="80u5x54LaO3btrXReR5X-2" target="u6CdAD8OhafTvienVMci-5" edge="1">
          <mxGeometry relative="1" as="geometry">
            <mxPoint x="-1305" y="-269.9999999999998" as="targetPoint" />
          </mxGeometry>
        </mxCell>
        <mxCell id="nsUrWpc9NIpct42hvLu3-8" value="Yes" style="edgeLabel;html=1;align=center;verticalAlign=middle;resizable=0;points=[];" vertex="1" connectable="0" parent="80u5x54LaO3btrXReR5X-9">
          <mxGeometry x="-0.3449" y="2" relative="1" as="geometry">
            <mxPoint x="1" as="offset" />
          </mxGeometry>
        </mxCell>
        <mxCell id="u6CdAD8OhafTvienVMci-36" style="edgeStyle=orthogonalEdgeStyle;rounded=0;orthogonalLoop=1;jettySize=auto;html=1;entryX=0.5;entryY=0;entryDx=0;entryDy=0;fontSize=20;" parent="1" source="80u5x54LaO3btrXReR5X-2" target="u6CdAD8OhafTvienVMci-35" edge="1">
          <mxGeometry relative="1" as="geometry" />
        </mxCell>
        <mxCell id="nsUrWpc9NIpct42hvLu3-10" value="No" style="edgeLabel;html=1;align=center;verticalAlign=middle;resizable=0;points=[];" vertex="1" connectable="0" parent="u6CdAD8OhafTvienVMci-36">
          <mxGeometry x="-0.376" relative="1" as="geometry">
            <mxPoint as="offset" />
          </mxGeometry>
        </mxCell>
        <mxCell id="80u5x54LaO3btrXReR5X-2" value="&lt;br&gt;&lt;font style=&quot;font-size: 21px&quot;&gt;Email Lands to&lt;/font&gt;&amp;nbsp;&lt;br&gt;&lt;p class=&quot;p1&quot; style=&quot;margin: 0px ; font-stretch: normal ; line-height: normal ; font-family: &amp;#34;helvetica neue&amp;#34;&quot;&gt;&lt;font style=&quot;font-size: 17px&quot;&gt;enterprise.data@airtel.com&lt;/font&gt;&lt;/p&gt;" style="rounded=0;whiteSpace=wrap;html=1;" parent="1" vertex="1">
          <mxGeometry x="-827" y="-714" width="430" height="130" as="geometry" />
        </mxCell>
        <mxCell id="80u5x54LaO3btrXReR5X-15" value="" style="edgeStyle=orthogonalEdgeStyle;rounded=0;orthogonalLoop=1;jettySize=auto;html=1;fontSize=18;fontColor=#FF0000;" parent="1" source="80u5x54LaO3btrXReR5X-11" target="80u5x54LaO3btrXReR5X-14" edge="1">
          <mxGeometry relative="1" as="geometry" />
        </mxCell>
        <mxCell id="nsUrWpc9NIpct42hvLu3-27" value="Yes" style="edgeLabel;html=1;align=center;verticalAlign=middle;resizable=0;points=[];" vertex="1" connectable="0" parent="80u5x54LaO3btrXReR5X-15">
          <mxGeometry x="-0.4261" y="3" relative="1" as="geometry">
            <mxPoint x="-1" as="offset" />
          </mxGeometry>
        </mxCell>
        <mxCell id="u6CdAD8OhafTvienVMci-88" style="edgeStyle=orthogonalEdgeStyle;rounded=0;orthogonalLoop=1;jettySize=auto;html=1;fontSize=20;strokeColor=#000000;" parent="1" source="80u5x54LaO3btrXReR5X-11" target="u6CdAD8OhafTvienVMci-79" edge="1">
          <mxGeometry relative="1" as="geometry" />
        </mxCell>
        <mxCell id="nsUrWpc9NIpct42hvLu3-38" value="No" style="edgeLabel;html=1;align=center;verticalAlign=middle;resizable=0;points=[];" vertex="1" connectable="0" parent="u6CdAD8OhafTvienVMci-88">
          <mxGeometry x="-0.2444" y="-1" relative="1" as="geometry">
            <mxPoint x="-1" as="offset" />
          </mxGeometry>
        </mxCell>
        <mxCell id="80u5x54LaO3btrXReR5X-11" value="&lt;font style=&quot;font-size: 21px&quot;&gt;Email Lands to&lt;/font&gt;&lt;span&gt;&amp;nbsp;&lt;/span&gt;&lt;br&gt;&lt;span&gt;data.support@airtel.com&lt;/span&gt;" style="rounded=0;whiteSpace=wrap;html=1;" parent="1" vertex="1">
          <mxGeometry x="3750" y="230" width="270" height="80" as="geometry" />
        </mxCell>
        <mxCell id="80u5x54LaO3btrXReR5X-20" value="" style="edgeStyle=orthogonalEdgeStyle;rounded=0;orthogonalLoop=1;jettySize=auto;html=1;fontSize=17;fontColor=#009900;" parent="1" source="80u5x54LaO3btrXReR5X-14" target="80u5x54LaO3btrXReR5X-19" edge="1">
          <mxGeometry relative="1" as="geometry" />
        </mxCell>
        <mxCell id="nsUrWpc9NIpct42hvLu3-28" value="No" style="edgeLabel;html=1;align=center;verticalAlign=middle;resizable=0;points=[];" vertex="1" connectable="0" parent="80u5x54LaO3btrXReR5X-20">
          <mxGeometry x="-0.3647" relative="1" as="geometry">
            <mxPoint x="-1" as="offset" />
          </mxGeometry>
        </mxCell>
        <mxCell id="u6CdAD8OhafTvienVMci-68" style="edgeStyle=orthogonalEdgeStyle;rounded=0;orthogonalLoop=1;jettySize=auto;html=1;entryX=0.5;entryY=0;entryDx=0;entryDy=0;fontSize=20;" parent="1" source="80u5x54LaO3btrXReR5X-14" target="u6CdAD8OhafTvienVMci-61" edge="1">
          <mxGeometry relative="1" as="geometry" />
        </mxCell>
        <mxCell id="nsUrWpc9NIpct42hvLu3-29" value="Yes" style="edgeLabel;html=1;align=center;verticalAlign=middle;resizable=0;points=[];" vertex="1" connectable="0" parent="u6CdAD8OhafTvienVMci-68">
          <mxGeometry x="-0.3196" y="2" relative="1" as="geometry">
            <mxPoint x="-1" as="offset" />
          </mxGeometry>
        </mxCell>
        <mxCell id="80u5x54LaO3btrXReR5X-14" value="&lt;font style=&quot;font-size: 17px&quot;&gt;Contains Tech Keywords&lt;/font&gt;" style="rounded=0;whiteSpace=wrap;html=1;" parent="1" vertex="1">
          <mxGeometry x="3380" y="360" width="230" height="70" as="geometry" />
        </mxCell>
        <mxCell id="u6CdAD8OhafTvienVMci-54" style="edgeStyle=orthogonalEdgeStyle;rounded=0;orthogonalLoop=1;jettySize=auto;html=1;entryX=0.532;entryY=0.178;entryDx=0;entryDy=0;entryPerimeter=0;fontSize=20;" parent="1" source="80u5x54LaO3btrXReR5X-19" target="u6CdAD8OhafTvienVMci-53" edge="1">
          <mxGeometry relative="1" as="geometry" />
        </mxCell>
        <mxCell id="nsUrWpc9NIpct42hvLu3-32" value="Yes" style="edgeLabel;html=1;align=center;verticalAlign=middle;resizable=0;points=[];" vertex="1" connectable="0" parent="u6CdAD8OhafTvienVMci-54">
          <mxGeometry x="-0.4353" y="3" relative="1" as="geometry">
            <mxPoint x="-1" as="offset" />
          </mxGeometry>
        </mxCell>
        <mxCell id="u6CdAD8OhafTvienVMci-55" style="edgeStyle=orthogonalEdgeStyle;rounded=0;orthogonalLoop=1;jettySize=auto;html=1;entryX=0.5;entryY=0;entryDx=0;entryDy=0;fontSize=20;" parent="1" source="80u5x54LaO3btrXReR5X-19" target="80u5x54LaO3btrXReR5X-21" edge="1">
          <mxGeometry relative="1" as="geometry" />
        </mxCell>
        <mxCell id="nsUrWpc9NIpct42hvLu3-33" value="No" style="edgeLabel;html=1;align=center;verticalAlign=middle;resizable=0;points=[];" vertex="1" connectable="0" parent="u6CdAD8OhafTvienVMci-55">
          <mxGeometry x="-0.5704" y="-1" relative="1" as="geometry">
            <mxPoint x="-1" as="offset" />
          </mxGeometry>
        </mxCell>
        <mxCell id="80u5x54LaO3btrXReR5X-19" value="Contains Non-Tech Keywords" style="rounded=0;whiteSpace=wrap;html=1;fontSize=20;" parent="1" vertex="1">
          <mxGeometry x="3750" y="570" width="220" height="60" as="geometry" />
        </mxCell>
        <mxCell id="u6CdAD8OhafTvienVMci-57" style="edgeStyle=orthogonalEdgeStyle;rounded=0;orthogonalLoop=1;jettySize=auto;html=1;fontSize=20;" parent="1" source="80u5x54LaO3btrXReR5X-21" target="u6CdAD8OhafTvienVMci-56" edge="1">
          <mxGeometry relative="1" as="geometry" />
        </mxCell>
        <mxCell id="nsUrWpc9NIpct42hvLu3-34" value="Yes" style="edgeLabel;html=1;align=center;verticalAlign=middle;resizable=0;points=[];" vertex="1" connectable="0" parent="u6CdAD8OhafTvienVMci-57">
          <mxGeometry x="-0.5044" y="3" relative="1" as="geometry">
            <mxPoint x="1" as="offset" />
          </mxGeometry>
        </mxCell>
        <mxCell id="u6CdAD8OhafTvienVMci-69" style="edgeStyle=orthogonalEdgeStyle;rounded=0;orthogonalLoop=1;jettySize=auto;html=1;entryX=0.5;entryY=0;entryDx=0;entryDy=0;entryPerimeter=0;fontSize=20;" parent="1" source="80u5x54LaO3btrXReR5X-21" target="u6CdAD8OhafTvienVMci-67" edge="1">
          <mxGeometry relative="1" as="geometry" />
        </mxCell>
        <mxCell id="nsUrWpc9NIpct42hvLu3-36" value="No" style="edgeLabel;html=1;align=center;verticalAlign=middle;resizable=0;points=[];" vertex="1" connectable="0" parent="u6CdAD8OhafTvienVMci-69">
          <mxGeometry x="-0.6768" y="1" relative="1" as="geometry">
            <mxPoint x="-1" as="offset" />
          </mxGeometry>
        </mxCell>
        <mxCell id="80u5x54LaO3btrXReR5X-21" value="Contains Disconnection Keywords" style="rounded=0;whiteSpace=wrap;html=1;fontSize=20;" parent="1" vertex="1">
          <mxGeometry x="4010" y="720" width="250" height="60" as="geometry" />
        </mxCell>
        <mxCell id="u6CdAD8OhafTvienVMci-9" value="" style="edgeStyle=orthogonalEdgeStyle;rounded=0;orthogonalLoop=1;jettySize=auto;html=1;fontSize=17;" parent="1" source="u6CdAD8OhafTvienVMci-5" target="u6CdAD8OhafTvienVMci-8" edge="1">
          <mxGeometry relative="1" as="geometry" />
        </mxCell>
        <mxCell id="nsUrWpc9NIpct42hvLu3-4" value="Yes" style="edgeLabel;html=1;align=center;verticalAlign=middle;resizable=0;points=[];" vertex="1" connectable="0" parent="u6CdAD8OhafTvienVMci-9">
          <mxGeometry x="-0.1448" y="1" relative="1" as="geometry">
            <mxPoint as="offset" />
          </mxGeometry>
        </mxCell>
        <mxCell id="u6CdAD8OhafTvienVMci-24" style="edgeStyle=orthogonalEdgeStyle;rounded=0;orthogonalLoop=1;jettySize=auto;html=1;entryX=0.5;entryY=0;entryDx=0;entryDy=0;entryPerimeter=0;fontSize=20;" parent="1" source="u6CdAD8OhafTvienVMci-5" target="u6CdAD8OhafTvienVMci-23" edge="1">
          <mxGeometry relative="1" as="geometry" />
        </mxCell>
        <mxCell id="nsUrWpc9NIpct42hvLu3-7" value="No" style="edgeLabel;html=1;align=center;verticalAlign=middle;resizable=0;points=[];" vertex="1" connectable="0" parent="u6CdAD8OhafTvienVMci-24">
          <mxGeometry x="0.1403" y="2" relative="1" as="geometry">
            <mxPoint x="-1" y="1" as="offset" />
          </mxGeometry>
        </mxCell>
        <mxCell id="u6CdAD8OhafTvienVMci-5" value="SR in open Status?" style="rhombus;whiteSpace=wrap;html=1;fontSize=17;" parent="1" vertex="1">
          <mxGeometry x="-1340" y="-515" width="140" height="120" as="geometry" />
        </mxCell>
        <mxCell id="u6CdAD8OhafTvienVMci-11" style="edgeStyle=orthogonalEdgeStyle;rounded=0;orthogonalLoop=1;jettySize=auto;html=1;entryX=0.5;entryY=0;entryDx=0;entryDy=0;entryPerimeter=0;fontSize=17;" parent="1" source="u6CdAD8OhafTvienVMci-8" target="u6CdAD8OhafTvienVMci-10" edge="1">
          <mxGeometry relative="1" as="geometry" />
        </mxCell>
        <mxCell id="nsUrWpc9NIpct42hvLu3-5" value="Yes" style="edgeLabel;html=1;align=center;verticalAlign=middle;resizable=0;points=[];" vertex="1" connectable="0" parent="u6CdAD8OhafTvienVMci-11">
          <mxGeometry x="-0.5059" y="3" relative="1" as="geometry">
            <mxPoint x="-1" as="offset" />
          </mxGeometry>
        </mxCell>
        <mxCell id="u6CdAD8OhafTvienVMci-13" style="edgeStyle=orthogonalEdgeStyle;rounded=0;orthogonalLoop=1;jettySize=auto;html=1;exitX=1;exitY=0.5;exitDx=0;exitDy=0;fontSize=17;" parent="1" source="u6CdAD8OhafTvienVMci-8" target="u6CdAD8OhafTvienVMci-12" edge="1">
          <mxGeometry relative="1" as="geometry" />
        </mxCell>
        <mxCell id="nsUrWpc9NIpct42hvLu3-6" value="No" style="edgeLabel;html=1;align=center;verticalAlign=middle;resizable=0;points=[];" vertex="1" connectable="0" parent="u6CdAD8OhafTvienVMci-13">
          <mxGeometry x="0.3562" y="-4" relative="1" as="geometry">
            <mxPoint y="1" as="offset" />
          </mxGeometry>
        </mxCell>
        <mxCell id="u6CdAD8OhafTvienVMci-8" value="&lt;span style=&quot;font-size: 20px&quot;&gt;SR open for more than 2 hours?&lt;/span&gt;" style="rhombus;whiteSpace=wrap;html=1;fontSize=17;" parent="1" vertex="1">
          <mxGeometry x="-1780" y="-360" width="200" height="210" as="geometry" />
        </mxCell>
        <mxCell id="u6CdAD8OhafTvienVMci-10" value="Operation.Manager Bin" style="shape=cylinder3;whiteSpace=wrap;html=1;boundedLbl=1;backgroundOutline=1;size=15;fontSize=17;" parent="1" vertex="1">
          <mxGeometry x="-2110" y="30" width="210" height="140" as="geometry" />
        </mxCell>
        <mxCell id="u6CdAD8OhafTvienVMci-12" value="Service.Manager Bin" style="shape=cylinder3;whiteSpace=wrap;html=1;boundedLbl=1;backgroundOutline=1;size=15;fontSize=17;" parent="1" vertex="1">
          <mxGeometry x="-1490" y="30" width="210" height="140" as="geometry" />
        </mxCell>
        <mxCell id="u6CdAD8OhafTvienVMci-15" style="edgeStyle=orthogonalEdgeStyle;rounded=0;orthogonalLoop=1;jettySize=auto;html=1;fontSize=20;entryX=0.5;entryY=0;entryDx=0;entryDy=0;" parent="1" source="u6CdAD8OhafTvienVMci-14" target="u6CdAD8OhafTvienVMci-17" edge="1">
          <mxGeometry relative="1" as="geometry">
            <mxPoint x="-900" y="-710" as="targetPoint" />
          </mxGeometry>
        </mxCell>
        <mxCell id="nsUrWpc9NIpct42hvLu3-2" value="No" style="edgeLabel;html=1;align=center;verticalAlign=middle;resizable=0;points=[];" vertex="1" connectable="0" parent="u6CdAD8OhafTvienVMci-15">
          <mxGeometry x="-0.2765" y="-2" relative="1" as="geometry">
            <mxPoint x="1" as="offset" />
          </mxGeometry>
        </mxCell>
        <mxCell id="u6CdAD8OhafTvienVMci-16" style="edgeStyle=orthogonalEdgeStyle;rounded=0;orthogonalLoop=1;jettySize=auto;html=1;entryX=0.5;entryY=0;entryDx=0;entryDy=0;entryPerimeter=0;fontSize=20;" parent="1" source="u6CdAD8OhafTvienVMci-14" target="u6CdAD8OhafTvienVMci-10" edge="1">
          <mxGeometry relative="1" as="geometry" />
        </mxCell>
        <mxCell id="nsUrWpc9NIpct42hvLu3-1" value="Yes" style="edgeLabel;html=1;align=center;verticalAlign=middle;resizable=0;points=[];" vertex="1" connectable="0" parent="u6CdAD8OhafTvienVMci-16">
          <mxGeometry x="0.0321" y="-2" relative="1" as="geometry">
            <mxPoint y="1" as="offset" />
          </mxGeometry>
        </mxCell>
        <mxCell id="u6CdAD8OhafTvienVMci-14" value="&lt;br&gt;&lt;font style=&quot;font-size: 21px&quot;&gt;Email Lands to&lt;/font&gt;&amp;nbsp;&lt;br&gt;&lt;p class=&quot;p1&quot; style=&quot;margin: 0px ; font-stretch: normal ; line-height: normal ; font-family: &amp;#34;helvetica neue&amp;#34;&quot;&gt;&lt;font style=&quot;font-size: 20px&quot;&gt;operation.manager@airtel.com&lt;/font&gt;&lt;/p&gt;" style="rounded=0;whiteSpace=wrap;html=1;" parent="1" vertex="1">
          <mxGeometry x="-1830" y="-940" width="430" height="130" as="geometry" />
        </mxCell>
        <mxCell id="u6CdAD8OhafTvienVMci-19" style="edgeStyle=orthogonalEdgeStyle;rounded=0;orthogonalLoop=1;jettySize=auto;html=1;entryX=0.5;entryY=0;entryDx=0;entryDy=0;fontSize=20;" parent="1" source="u6CdAD8OhafTvienVMci-17" target="80u5x54LaO3btrXReR5X-2" edge="1">
          <mxGeometry relative="1" as="geometry" />
        </mxCell>
        <mxCell id="nsUrWpc9NIpct42hvLu3-9" value="No" style="edgeLabel;html=1;align=center;verticalAlign=middle;resizable=0;points=[];" vertex="1" connectable="0" parent="u6CdAD8OhafTvienVMci-19">
          <mxGeometry x="-0.2158" y="7" relative="1" as="geometry">
            <mxPoint x="-1" y="7" as="offset" />
          </mxGeometry>
        </mxCell>
        <mxCell id="u6CdAD8OhafTvienVMci-22" style="edgeStyle=orthogonalEdgeStyle;rounded=0;orthogonalLoop=1;jettySize=auto;html=1;fontSize=20;" parent="1" source="u6CdAD8OhafTvienVMci-17" target="u6CdAD8OhafTvienVMci-8" edge="1">
          <mxGeometry relative="1" as="geometry" />
        </mxCell>
        <mxCell id="nsUrWpc9NIpct42hvLu3-3" value="Yes" style="edgeLabel;html=1;align=center;verticalAlign=middle;resizable=0;points=[];" vertex="1" connectable="0" parent="u6CdAD8OhafTvienVMci-22">
          <mxGeometry x="-0.2083" y="6" relative="1" as="geometry">
            <mxPoint x="-1" y="-6" as="offset" />
          </mxGeometry>
        </mxCell>
        <mxCell id="u6CdAD8OhafTvienVMci-17" value="&lt;br&gt;&lt;font style=&quot;font-size: 21px&quot;&gt;Email Lands to&lt;/font&gt;&amp;nbsp;&lt;br&gt;&lt;p class=&quot;p1&quot; style=&quot;margin: 0px ; font-stretch: normal ; line-height: normal ; font-family: &amp;#34;helvetica neue&amp;#34;&quot;&gt;&lt;span style=&quot;font-size: 17px&quot;&gt;service.manager@airtel.com&lt;/span&gt;&lt;/p&gt;" style="rounded=0;whiteSpace=wrap;html=1;" parent="1" vertex="1">
          <mxGeometry x="-1340" y="-810" width="430" height="130" as="geometry" />
        </mxCell>
        <mxCell id="u6CdAD8OhafTvienVMci-23" value="Enterpise.Data bin" style="shape=cylinder3;whiteSpace=wrap;html=1;boundedLbl=1;backgroundOutline=1;size=15;fontSize=17;" parent="1" vertex="1">
          <mxGeometry x="-1070" y="30" width="210" height="140" as="geometry" />
        </mxCell>
        <mxCell id="u6CdAD8OhafTvienVMci-28" style="edgeStyle=orthogonalEdgeStyle;rounded=0;orthogonalLoop=1;jettySize=auto;html=1;entryX=0.5;entryY=0;entryDx=0;entryDy=0;fontSize=20;" parent="1" source="u6CdAD8OhafTvienVMci-25" target="u6CdAD8OhafTvienVMci-27" edge="1">
          <mxGeometry relative="1" as="geometry" />
        </mxCell>
        <mxCell id="nsUrWpc9NIpct42hvLu3-14" value="Yes" style="edgeLabel;html=1;align=center;verticalAlign=middle;resizable=0;points=[];" vertex="1" connectable="0" parent="u6CdAD8OhafTvienVMci-28">
          <mxGeometry x="-0.1344" y="6" relative="1" as="geometry">
            <mxPoint x="-1" as="offset" />
          </mxGeometry>
        </mxCell>
        <mxCell id="u6CdAD8OhafTvienVMci-40" style="edgeStyle=orthogonalEdgeStyle;rounded=0;orthogonalLoop=1;jettySize=auto;html=1;entryX=0.5;entryY=0;entryDx=0;entryDy=0;fontSize=20;" parent="1" source="u6CdAD8OhafTvienVMci-25" target="u6CdAD8OhafTvienVMci-39" edge="1">
          <mxGeometry relative="1" as="geometry" />
        </mxCell>
        <mxCell id="nsUrWpc9NIpct42hvLu3-16" value="No" style="edgeLabel;html=1;align=center;verticalAlign=middle;resizable=0;points=[];" vertex="1" connectable="0" parent="u6CdAD8OhafTvienVMci-40">
          <mxGeometry x="-0.3764" y="-3" relative="1" as="geometry">
            <mxPoint x="-1" as="offset" />
          </mxGeometry>
        </mxCell>
        <mxCell id="u6CdAD8OhafTvienVMci-25" value="&lt;br&gt;&lt;font style=&quot;font-size: 21px&quot;&gt;Email Lands to&lt;/font&gt;&amp;nbsp;&lt;br&gt;&lt;p class=&quot;p1&quot; style=&quot;margin: 0px ; font-stretch: normal ; line-height: normal ; font-family: &amp;#34;helvetica neue&amp;#34;&quot;&gt;&lt;font style=&quot;font-size: 20px&quot;&gt;servicedesk.voice@airtel.com&lt;/font&gt;&lt;/p&gt;" style="rounded=0;whiteSpace=wrap;html=1;" parent="1" vertex="1">
          <mxGeometry x="380" y="-430" width="430" height="130" as="geometry" />
        </mxCell>
        <mxCell id="u6CdAD8OhafTvienVMci-30" style="edgeStyle=orthogonalEdgeStyle;rounded=0;orthogonalLoop=1;jettySize=auto;html=1;entryX=0.5;entryY=0;entryDx=0;entryDy=0;entryPerimeter=0;fontSize=20;" parent="1" source="u6CdAD8OhafTvienVMci-27" target="u6CdAD8OhafTvienVMci-29" edge="1">
          <mxGeometry relative="1" as="geometry" />
        </mxCell>
        <mxCell id="nsUrWpc9NIpct42hvLu3-12" value="Yes" style="edgeLabel;html=1;align=center;verticalAlign=middle;resizable=0;points=[];" vertex="1" connectable="0" parent="u6CdAD8OhafTvienVMci-30">
          <mxGeometry x="-0.2956" y="1" relative="1" as="geometry">
            <mxPoint x="-1" as="offset" />
          </mxGeometry>
        </mxCell>
        <mxCell id="u6CdAD8OhafTvienVMci-32" style="edgeStyle=orthogonalEdgeStyle;rounded=0;orthogonalLoop=1;jettySize=auto;html=1;fontSize=20;" parent="1" source="u6CdAD8OhafTvienVMci-27" target="u6CdAD8OhafTvienVMci-31" edge="1">
          <mxGeometry relative="1" as="geometry" />
        </mxCell>
        <mxCell id="nsUrWpc9NIpct42hvLu3-15" value="No" style="edgeLabel;html=1;align=center;verticalAlign=middle;resizable=0;points=[];" vertex="1" connectable="0" parent="u6CdAD8OhafTvienVMci-32">
          <mxGeometry x="-0.4475" y="-1" relative="1" as="geometry">
            <mxPoint x="-1" as="offset" />
          </mxGeometry>
        </mxCell>
        <mxCell id="u6CdAD8OhafTvienVMci-27" value="SR in open Status?" style="rhombus;whiteSpace=wrap;html=1;fontSize=17;" parent="1" vertex="1">
          <mxGeometry x="-230" y="-250" width="140" height="120" as="geometry" />
        </mxCell>
        <mxCell id="u6CdAD8OhafTvienVMci-29" value="DSD Voice bin" style="shape=cylinder3;whiteSpace=wrap;html=1;boundedLbl=1;backgroundOutline=1;size=15;fontSize=17;" parent="1" vertex="1">
          <mxGeometry x="-680" y="30" width="210" height="140" as="geometry" />
        </mxCell>
        <mxCell id="u6CdAD8OhafTvienVMci-31" value="Service Desk Voice Bin" style="shape=cylinder3;whiteSpace=wrap;html=1;boundedLbl=1;backgroundOutline=1;size=15;fontSize=17;" parent="1" vertex="1">
          <mxGeometry x="414" y="30" width="210" height="140" as="geometry" />
        </mxCell>
        <mxCell id="u6CdAD8OhafTvienVMci-37" style="edgeStyle=orthogonalEdgeStyle;rounded=0;orthogonalLoop=1;jettySize=auto;html=1;fontSize=20;" parent="1" source="u6CdAD8OhafTvienVMci-35" target="u6CdAD8OhafTvienVMci-29" edge="1">
          <mxGeometry relative="1" as="geometry" />
        </mxCell>
        <mxCell id="nsUrWpc9NIpct42hvLu3-11" value="Yes" style="edgeLabel;html=1;align=center;verticalAlign=middle;resizable=0;points=[];" vertex="1" connectable="0" parent="u6CdAD8OhafTvienVMci-37">
          <mxGeometry x="-0.5471" relative="1" as="geometry">
            <mxPoint x="1" as="offset" />
          </mxGeometry>
        </mxCell>
        <mxCell id="u6CdAD8OhafTvienVMci-38" style="edgeStyle=orthogonalEdgeStyle;rounded=0;orthogonalLoop=1;jettySize=auto;html=1;fontSize=20;" parent="1" source="u6CdAD8OhafTvienVMci-35" target="u6CdAD8OhafTvienVMci-25" edge="1">
          <mxGeometry relative="1" as="geometry" />
        </mxCell>
        <mxCell id="nsUrWpc9NIpct42hvLu3-13" value="No" style="edgeLabel;html=1;align=center;verticalAlign=middle;resizable=0;points=[];" vertex="1" connectable="0" parent="u6CdAD8OhafTvienVMci-38">
          <mxGeometry x="-0.3444" y="-6" relative="1" as="geometry">
            <mxPoint x="-1" y="-5" as="offset" />
          </mxGeometry>
        </mxCell>
        <mxCell id="u6CdAD8OhafTvienVMci-35" value="&lt;br&gt;&lt;font style=&quot;font-size: 21px&quot;&gt;Email Lands to&lt;/font&gt;&amp;nbsp;&lt;br&gt;&lt;p class=&quot;p1&quot; style=&quot;margin: 0px ; font-stretch: normal ; line-height: normal ; font-family: &amp;#34;helvetica neue&amp;#34;&quot;&gt;&lt;font style=&quot;font-size: 20px&quot;&gt;dsd.voice@airtel.com&lt;/font&gt;&lt;/p&gt;" style="rounded=0;whiteSpace=wrap;html=1;" parent="1" vertex="1">
          <mxGeometry x="-270" y="-600" width="430" height="130" as="geometry" />
        </mxCell>
        <mxCell id="u6CdAD8OhafTvienVMci-42" style="edgeStyle=orthogonalEdgeStyle;rounded=0;orthogonalLoop=1;jettySize=auto;html=1;fontSize=20;" parent="1" source="u6CdAD8OhafTvienVMci-39" target="u6CdAD8OhafTvienVMci-41" edge="1">
          <mxGeometry relative="1" as="geometry" />
        </mxCell>
        <mxCell id="nsUrWpc9NIpct42hvLu3-17" value="Yes" style="edgeLabel;html=1;align=center;verticalAlign=middle;resizable=0;points=[];" vertex="1" connectable="0" parent="u6CdAD8OhafTvienVMci-42">
          <mxGeometry x="-0.5662" y="6" relative="1" as="geometry">
            <mxPoint x="-1" y="-5" as="offset" />
          </mxGeometry>
        </mxCell>
        <mxCell id="u6CdAD8OhafTvienVMci-45" style="edgeStyle=orthogonalEdgeStyle;rounded=0;orthogonalLoop=1;jettySize=auto;html=1;entryX=0.5;entryY=0;entryDx=0;entryDy=0;fontSize=20;" parent="1" source="u6CdAD8OhafTvienVMci-39" target="u6CdAD8OhafTvienVMci-44" edge="1">
          <mxGeometry relative="1" as="geometry" />
        </mxCell>
        <mxCell id="nsUrWpc9NIpct42hvLu3-18" value="No" style="edgeLabel;html=1;align=center;verticalAlign=middle;resizable=0;points=[];" vertex="1" connectable="0" parent="u6CdAD8OhafTvienVMci-45">
          <mxGeometry x="-0.2722" y="2" relative="1" as="geometry">
            <mxPoint x="-1" as="offset" />
          </mxGeometry>
        </mxCell>
        <mxCell id="u6CdAD8OhafTvienVMci-39" value="&lt;br&gt;&lt;font style=&quot;font-size: 21px&quot;&gt;Email Lands to&lt;/font&gt;&amp;nbsp;&lt;br&gt;&lt;p class=&quot;p1&quot; style=&quot;margin: 0px ; font-stretch: normal ; line-height: normal ; font-family: &amp;#34;helvetica neue&amp;#34;&quot;&gt;&lt;font style=&quot;font-size: 20px&quot;&gt;cfm.l2&lt;/font&gt;&lt;span style=&quot;font-size: 20px&quot;&gt;@airtel.com&lt;/span&gt;&lt;/p&gt;" style="rounded=0;whiteSpace=wrap;html=1;" parent="1" vertex="1">
          <mxGeometry x="1080" y="-300" width="430" height="130" as="geometry" />
        </mxCell>
        <mxCell id="u6CdAD8OhafTvienVMci-41" value="CFM L2 Bin" style="shape=cylinder3;whiteSpace=wrap;html=1;boundedLbl=1;backgroundOutline=1;size=15;fontSize=17;" parent="1" vertex="1">
          <mxGeometry x="750" y="340" width="210" height="140" as="geometry" />
        </mxCell>
        <mxCell id="u6CdAD8OhafTvienVMci-43" value="Service Desk Data Bin" style="shape=cylinder3;whiteSpace=wrap;html=1;boundedLbl=1;backgroundOutline=1;size=15;fontSize=17;" parent="1" vertex="1">
          <mxGeometry x="1560" y="340" width="210" height="140" as="geometry" />
        </mxCell>
        <mxCell id="u6CdAD8OhafTvienVMci-47" style="edgeStyle=orthogonalEdgeStyle;rounded=0;orthogonalLoop=1;jettySize=auto;html=1;entryX=0.5;entryY=0;entryDx=0;entryDy=0;fontSize=20;" parent="1" source="u6CdAD8OhafTvienVMci-44" target="u6CdAD8OhafTvienVMci-46" edge="1">
          <mxGeometry relative="1" as="geometry" />
        </mxCell>
        <mxCell id="nsUrWpc9NIpct42hvLu3-19" value="Yes" style="edgeLabel;html=1;align=center;verticalAlign=middle;resizable=0;points=[];" vertex="1" connectable="0" parent="u6CdAD8OhafTvienVMci-47">
          <mxGeometry x="-0.1008" y="-7" relative="1" as="geometry">
            <mxPoint x="-1" y="3" as="offset" />
          </mxGeometry>
        </mxCell>
        <mxCell id="u6CdAD8OhafTvienVMci-51" style="edgeStyle=orthogonalEdgeStyle;rounded=0;orthogonalLoop=1;jettySize=auto;html=1;fontSize=20;entryX=0.5;entryY=0;entryDx=0;entryDy=0;" parent="1" source="u6CdAD8OhafTvienVMci-44" target="u6CdAD8OhafTvienVMci-73" edge="1">
          <mxGeometry relative="1" as="geometry" />
        </mxCell>
        <mxCell id="nsUrWpc9NIpct42hvLu3-22" value="No" style="edgeLabel;html=1;align=center;verticalAlign=middle;resizable=0;points=[];" vertex="1" connectable="0" parent="u6CdAD8OhafTvienVMci-51">
          <mxGeometry x="-0.3493" y="-2" relative="1" as="geometry">
            <mxPoint x="1" as="offset" />
          </mxGeometry>
        </mxCell>
        <mxCell id="u6CdAD8OhafTvienVMci-44" value="&lt;br&gt;&lt;font style=&quot;font-size: 21px&quot;&gt;Email Lands to&lt;/font&gt;&amp;nbsp;&lt;br&gt;&lt;p class=&quot;p1&quot; style=&quot;margin: 0px ; font-stretch: normal ; line-height: normal ; font-family: &amp;#34;helvetica neue&amp;#34;&quot;&gt;&lt;span style=&quot;font-size: 20px&quot;&gt;servicedesk.data@airtel.com&lt;/span&gt;&lt;/p&gt;" style="rounded=0;whiteSpace=wrap;html=1;" parent="1" vertex="1">
          <mxGeometry x="1750" y="-150" width="430" height="130" as="geometry" />
        </mxCell>
        <mxCell id="u6CdAD8OhafTvienVMci-49" style="edgeStyle=orthogonalEdgeStyle;rounded=0;orthogonalLoop=1;jettySize=auto;html=1;fontSize=20;" parent="1" source="u6CdAD8OhafTvienVMci-46" target="u6CdAD8OhafTvienVMci-41" edge="1">
          <mxGeometry relative="1" as="geometry" />
        </mxCell>
        <mxCell id="nsUrWpc9NIpct42hvLu3-20" value="Yes" style="edgeLabel;html=1;align=center;verticalAlign=middle;resizable=0;points=[];" vertex="1" connectable="0" parent="u6CdAD8OhafTvienVMci-49">
          <mxGeometry x="-0.3947" y="-1" relative="1" as="geometry">
            <mxPoint x="-1" as="offset" />
          </mxGeometry>
        </mxCell>
        <mxCell id="u6CdAD8OhafTvienVMci-50" style="edgeStyle=orthogonalEdgeStyle;rounded=0;orthogonalLoop=1;jettySize=auto;html=1;entryX=0.5;entryY=0;entryDx=0;entryDy=0;entryPerimeter=0;fontSize=20;" parent="1" source="u6CdAD8OhafTvienVMci-46" target="u6CdAD8OhafTvienVMci-43" edge="1">
          <mxGeometry relative="1" as="geometry" />
        </mxCell>
        <mxCell id="nsUrWpc9NIpct42hvLu3-21" value="No" style="edgeLabel;html=1;align=center;verticalAlign=middle;resizable=0;points=[];" vertex="1" connectable="0" parent="u6CdAD8OhafTvienVMci-50">
          <mxGeometry x="-0.5193" y="-3" relative="1" as="geometry">
            <mxPoint x="1" as="offset" />
          </mxGeometry>
        </mxCell>
        <mxCell id="u6CdAD8OhafTvienVMci-46" value="SR in open Status?" style="rhombus;whiteSpace=wrap;html=1;fontSize=17;" parent="1" vertex="1">
          <mxGeometry x="1200" y="60" width="140" height="120" as="geometry" />
        </mxCell>
        <mxCell id="u6CdAD8OhafTvienVMci-53" value="Non Tech Bin" style="shape=cylinder3;whiteSpace=wrap;html=1;boundedLbl=1;backgroundOutline=1;size=15;fontSize=17;" parent="1" vertex="1">
          <mxGeometry x="3150" y="1330" width="210" height="140" as="geometry" />
        </mxCell>
        <mxCell id="u6CdAD8OhafTvienVMci-56" value="Disconnection Bin" style="shape=cylinder3;whiteSpace=wrap;html=1;boundedLbl=1;backgroundOutline=1;size=15;fontSize=17;" parent="1" vertex="1">
          <mxGeometry x="3512" y="1330" width="210" height="140" as="geometry" />
        </mxCell>
        <mxCell id="u6CdAD8OhafTvienVMci-59" value="" style="edgeStyle=orthogonalEdgeStyle;rounded=0;orthogonalLoop=1;jettySize=auto;html=1;fontSize=17;" parent="1" source="u6CdAD8OhafTvienVMci-61" target="u6CdAD8OhafTvienVMci-64" edge="1">
          <mxGeometry relative="1" as="geometry" />
        </mxCell>
        <mxCell id="nsUrWpc9NIpct42hvLu3-30" value="Yes" style="edgeLabel;html=1;align=center;verticalAlign=middle;resizable=0;points=[];" vertex="1" connectable="0" parent="u6CdAD8OhafTvienVMci-59">
          <mxGeometry x="-0.5702" y="-1" relative="1" as="geometry">
            <mxPoint x="1" as="offset" />
          </mxGeometry>
        </mxCell>
        <mxCell id="u6CdAD8OhafTvienVMci-60" style="edgeStyle=orthogonalEdgeStyle;rounded=0;orthogonalLoop=1;jettySize=auto;html=1;entryX=0.5;entryY=0;entryDx=0;entryDy=0;entryPerimeter=0;fontSize=20;strokeColor=#000000;" parent="1" source="u6CdAD8OhafTvienVMci-61" target="u6CdAD8OhafTvienVMci-67" edge="1">
          <mxGeometry relative="1" as="geometry" />
        </mxCell>
        <mxCell id="nsUrWpc9NIpct42hvLu3-31" value="No" style="edgeLabel;html=1;align=center;verticalAlign=middle;resizable=0;points=[];" vertex="1" connectable="0" parent="u6CdAD8OhafTvienVMci-60">
          <mxGeometry x="-0.7614" y="-1" relative="1" as="geometry">
            <mxPoint x="1" as="offset" />
          </mxGeometry>
        </mxCell>
        <mxCell id="u6CdAD8OhafTvienVMci-61" value="SR in open Status?" style="rhombus;whiteSpace=wrap;html=1;fontSize=17;" parent="1" vertex="1">
          <mxGeometry x="2910" y="480" width="140" height="120" as="geometry" />
        </mxCell>
        <mxCell id="u6CdAD8OhafTvienVMci-62" style="edgeStyle=orthogonalEdgeStyle;rounded=0;orthogonalLoop=1;jettySize=auto;html=1;entryX=0.5;entryY=0;entryDx=0;entryDy=0;entryPerimeter=0;fontSize=17;" parent="1" source="u6CdAD8OhafTvienVMci-64" target="u6CdAD8OhafTvienVMci-65" edge="1">
          <mxGeometry relative="1" as="geometry" />
        </mxCell>
        <mxCell id="u6CdAD8OhafTvienVMci-63" style="edgeStyle=orthogonalEdgeStyle;rounded=0;orthogonalLoop=1;jettySize=auto;html=1;exitX=1;exitY=0.5;exitDx=0;exitDy=0;fontSize=17;" parent="1" source="u6CdAD8OhafTvienVMci-64" target="u6CdAD8OhafTvienVMci-66" edge="1">
          <mxGeometry relative="1" as="geometry" />
        </mxCell>
        <mxCell id="u6CdAD8OhafTvienVMci-64" value="&lt;span style=&quot;font-size: 20px&quot;&gt;SR open for more than 2 hours?&lt;/span&gt;" style="rhombus;whiteSpace=wrap;html=1;fontSize=17;" parent="1" vertex="1">
          <mxGeometry x="2580" y="780" width="200" height="210" as="geometry" />
        </mxCell>
        <mxCell id="u6CdAD8OhafTvienVMci-65" value="Operation.Head Bin" style="shape=cylinder3;whiteSpace=wrap;html=1;boundedLbl=1;backgroundOutline=1;size=15;fontSize=17;" parent="1" vertex="1">
          <mxGeometry x="2300" y="1330" width="210" height="140" as="geometry" />
        </mxCell>
        <mxCell id="u6CdAD8OhafTvienVMci-66" value="Shift Manager Bin" style="shape=cylinder3;whiteSpace=wrap;html=1;boundedLbl=1;backgroundOutline=1;size=15;fontSize=17;" parent="1" vertex="1">
          <mxGeometry x="2850" y="1330" width="210" height="140" as="geometry" />
        </mxCell>
        <mxCell id="u6CdAD8OhafTvienVMci-67" value="Data.Support Bin" style="shape=cylinder3;whiteSpace=wrap;html=1;boundedLbl=1;backgroundOutline=1;size=15;fontSize=17;" parent="1" vertex="1">
          <mxGeometry x="4370" y="1420" width="210" height="140" as="geometry" />
        </mxCell>
        <mxCell id="u6CdAD8OhafTvienVMci-83" style="edgeStyle=orthogonalEdgeStyle;rounded=0;orthogonalLoop=1;jettySize=auto;html=1;fontSize=20;strokeColor=#000000;" parent="1" source="u6CdAD8OhafTvienVMci-73" target="u6CdAD8OhafTvienVMci-76" edge="1">
          <mxGeometry relative="1" as="geometry" />
        </mxCell>
        <mxCell id="nsUrWpc9NIpct42hvLu3-24" value="No" style="edgeLabel;html=1;align=center;verticalAlign=middle;resizable=0;points=[];" vertex="1" connectable="0" parent="u6CdAD8OhafTvienVMci-83">
          <mxGeometry x="-0.4278" y="-1" relative="1" as="geometry">
            <mxPoint x="-1" as="offset" />
          </mxGeometry>
        </mxCell>
        <mxCell id="u6CdAD8OhafTvienVMci-85" style="edgeStyle=orthogonalEdgeStyle;rounded=0;orthogonalLoop=1;jettySize=auto;html=1;fontSize=20;strokeColor=#000000;" parent="1" source="u6CdAD8OhafTvienVMci-73" target="u6CdAD8OhafTvienVMci-65" edge="1">
          <mxGeometry relative="1" as="geometry" />
        </mxCell>
        <mxCell id="nsUrWpc9NIpct42hvLu3-23" value="Yes" style="edgeLabel;html=1;align=center;verticalAlign=middle;resizable=0;points=[];" vertex="1" connectable="0" parent="u6CdAD8OhafTvienVMci-85">
          <mxGeometry x="-0.7956" y="1" relative="1" as="geometry">
            <mxPoint x="-1" as="offset" />
          </mxGeometry>
        </mxCell>
        <mxCell id="u6CdAD8OhafTvienVMci-73" value="&lt;font style=&quot;font-size: 21px&quot;&gt;Email Lands to&lt;/font&gt;&lt;span&gt;&amp;nbsp;&lt;/span&gt;&lt;br&gt;Operation.Head@airtel.com" style="rounded=0;whiteSpace=wrap;html=1;" parent="1" vertex="1">
          <mxGeometry x="2680" y="-10" width="270" height="80" as="geometry" />
        </mxCell>
        <mxCell id="u6CdAD8OhafTvienVMci-84" style="edgeStyle=orthogonalEdgeStyle;rounded=0;orthogonalLoop=1;jettySize=auto;html=1;fontSize=20;strokeColor=#000000;entryX=0.5;entryY=0;entryDx=0;entryDy=0;" parent="1" source="u6CdAD8OhafTvienVMci-76" edge="1" target="80u5x54LaO3btrXReR5X-11">
          <mxGeometry relative="1" as="geometry">
            <mxPoint x="3920" y="450" as="targetPoint" />
          </mxGeometry>
        </mxCell>
        <mxCell id="nsUrWpc9NIpct42hvLu3-26" value="No" style="edgeLabel;html=1;align=center;verticalAlign=middle;resizable=0;points=[];" vertex="1" connectable="0" parent="u6CdAD8OhafTvienVMci-84">
          <mxGeometry x="-0.4513" y="1" relative="1" as="geometry">
            <mxPoint x="-1" as="offset" />
          </mxGeometry>
        </mxCell>
        <mxCell id="u6CdAD8OhafTvienVMci-102" style="edgeStyle=orthogonalEdgeStyle;rounded=0;orthogonalLoop=1;jettySize=auto;html=1;entryX=0.5;entryY=0;entryDx=0;entryDy=0;fontSize=20;strokeColor=#000000;" parent="1" source="u6CdAD8OhafTvienVMci-76" target="u6CdAD8OhafTvienVMci-64" edge="1">
          <mxGeometry relative="1" as="geometry" />
        </mxCell>
        <mxCell id="nsUrWpc9NIpct42hvLu3-25" value="Yes" style="edgeLabel;html=1;align=center;verticalAlign=middle;resizable=0;points=[];" vertex="1" connectable="0" parent="u6CdAD8OhafTvienVMci-102">
          <mxGeometry x="-0.4946" y="3" relative="1" as="geometry">
            <mxPoint x="1" as="offset" />
          </mxGeometry>
        </mxCell>
        <mxCell id="u6CdAD8OhafTvienVMci-76" value="&lt;font style=&quot;font-size: 21px&quot;&gt;Email Lands to&lt;/font&gt;&lt;span&gt;&amp;nbsp;&lt;/span&gt;&lt;br&gt;Shift.Manager@airtel.com" style="rounded=0;whiteSpace=wrap;html=1;" parent="1" vertex="1">
          <mxGeometry x="3150" y="90" width="270" height="80" as="geometry" />
        </mxCell>
        <mxCell id="u6CdAD8OhafTvienVMci-89" style="edgeStyle=orthogonalEdgeStyle;rounded=0;orthogonalLoop=1;jettySize=auto;html=1;entryX=0.5;entryY=0;entryDx=0;entryDy=0;entryPerimeter=0;fontSize=20;strokeColor=#000000;" parent="1" source="u6CdAD8OhafTvienVMci-79" target="u6CdAD8OhafTvienVMci-56" edge="1">
          <mxGeometry relative="1" as="geometry" />
        </mxCell>
        <mxCell id="nsUrWpc9NIpct42hvLu3-37" value="Yes" style="edgeLabel;html=1;align=center;verticalAlign=middle;resizable=0;points=[];" vertex="1" connectable="0" parent="u6CdAD8OhafTvienVMci-89">
          <mxGeometry x="-0.2378" y="3" relative="1" as="geometry">
            <mxPoint x="1" as="offset" />
          </mxGeometry>
        </mxCell>
        <mxCell id="u6CdAD8OhafTvienVMci-91" style="edgeStyle=orthogonalEdgeStyle;rounded=0;orthogonalLoop=1;jettySize=auto;html=1;fontSize=20;strokeColor=#000000;" parent="1" source="u6CdAD8OhafTvienVMci-79" target="u6CdAD8OhafTvienVMci-90" edge="1">
          <mxGeometry relative="1" as="geometry" />
        </mxCell>
        <mxCell id="nsUrWpc9NIpct42hvLu3-39" value="No" style="edgeLabel;html=1;align=center;verticalAlign=middle;resizable=0;points=[];" vertex="1" connectable="0" parent="u6CdAD8OhafTvienVMci-91">
          <mxGeometry x="-0.409" y="-1" relative="1" as="geometry">
            <mxPoint x="1" as="offset" />
          </mxGeometry>
        </mxCell>
        <mxCell id="u6CdAD8OhafTvienVMci-79" value="&lt;font style=&quot;font-size: 21px&quot;&gt;Email Lands to&lt;/font&gt;&lt;span&gt;&amp;nbsp;&lt;/span&gt;&lt;br&gt;Enterprise,Request@airtel.com" style="rounded=0;whiteSpace=wrap;html=1;" parent="1" vertex="1">
          <mxGeometry x="4880" y="850" width="270" height="80" as="geometry" />
        </mxCell>
        <mxCell id="u6CdAD8OhafTvienVMci-93" style="edgeStyle=orthogonalEdgeStyle;rounded=0;orthogonalLoop=1;jettySize=auto;html=1;entryX=0.5;entryY=0;entryDx=0;entryDy=0;fontSize=20;strokeColor=#000000;" parent="1" source="u6CdAD8OhafTvienVMci-90" target="u6CdAD8OhafTvienVMci-92" edge="1">
          <mxGeometry relative="1" as="geometry" />
        </mxCell>
        <mxCell id="nsUrWpc9NIpct42hvLu3-40" value="No" style="edgeLabel;html=1;align=center;verticalAlign=middle;resizable=0;points=[];" vertex="1" connectable="0" parent="u6CdAD8OhafTvienVMci-93">
          <mxGeometry x="-0.5365" y="-3" relative="1" as="geometry">
            <mxPoint x="-1" as="offset" />
          </mxGeometry>
        </mxCell>
        <mxCell id="u6CdAD8OhafTvienVMci-99" style="edgeStyle=orthogonalEdgeStyle;rounded=0;orthogonalLoop=1;jettySize=auto;html=1;fontSize=20;strokeColor=#000000;" parent="1" source="u6CdAD8OhafTvienVMci-90" target="u6CdAD8OhafTvienVMci-96" edge="1">
          <mxGeometry relative="1" as="geometry" />
        </mxCell>
        <mxCell id="nsUrWpc9NIpct42hvLu3-41" value="Yes" style="edgeLabel;html=1;align=center;verticalAlign=middle;resizable=0;points=[];" vertex="1" connectable="0" parent="u6CdAD8OhafTvienVMci-99">
          <mxGeometry x="-0.3689" y="-3" relative="1" as="geometry">
            <mxPoint x="-1" as="offset" />
          </mxGeometry>
        </mxCell>
        <mxCell id="u6CdAD8OhafTvienVMci-90" value="&lt;font style=&quot;font-size: 21px&quot;&gt;Email Lands to&lt;/font&gt;&lt;span&gt;&amp;nbsp;&lt;/span&gt;&lt;br&gt;&lt;p class=&quot;p1&quot; style=&quot;margin: 0px ; font-stretch: normal ; font-size: 13px ; line-height: normal ; font-family: &amp;#34;helvetica neue&amp;#34;&quot;&gt;dsd.support@airtel.com&lt;/p&gt;" style="rounded=0;whiteSpace=wrap;html=1;" parent="1" vertex="1">
          <mxGeometry x="5250" y="990" width="270" height="80" as="geometry" />
        </mxCell>
        <mxCell id="u6CdAD8OhafTvienVMci-95" style="edgeStyle=orthogonalEdgeStyle;rounded=0;orthogonalLoop=1;jettySize=auto;html=1;fontSize=20;strokeColor=#000000;" parent="1" source="u6CdAD8OhafTvienVMci-92" target="u6CdAD8OhafTvienVMci-94" edge="1">
          <mxGeometry relative="1" as="geometry" />
        </mxCell>
        <mxCell id="nsUrWpc9NIpct42hvLu3-43" value="No" style="edgeLabel;html=1;align=center;verticalAlign=middle;resizable=0;points=[];" vertex="1" connectable="0" parent="u6CdAD8OhafTvienVMci-95">
          <mxGeometry x="-0.4761" y="-1" relative="1" as="geometry">
            <mxPoint x="1" as="offset" />
          </mxGeometry>
        </mxCell>
        <mxCell id="u6CdAD8OhafTvienVMci-100" style="edgeStyle=orthogonalEdgeStyle;rounded=0;orthogonalLoop=1;jettySize=auto;html=1;entryX=0.5;entryY=0;entryDx=0;entryDy=0;entryPerimeter=0;fontSize=20;strokeColor=#000000;" parent="1" source="u6CdAD8OhafTvienVMci-92" target="u6CdAD8OhafTvienVMci-97" edge="1">
          <mxGeometry relative="1" as="geometry" />
        </mxCell>
        <mxCell id="nsUrWpc9NIpct42hvLu3-42" value="Yes" style="edgeLabel;html=1;align=center;verticalAlign=middle;resizable=0;points=[];" vertex="1" connectable="0" parent="u6CdAD8OhafTvienVMci-100">
          <mxGeometry x="-0.3578" y="-3" relative="1" as="geometry">
            <mxPoint x="-1" as="offset" />
          </mxGeometry>
        </mxCell>
        <mxCell id="u6CdAD8OhafTvienVMci-92" value="&lt;font style=&quot;font-size: 21px&quot;&gt;Email Lands to&lt;/font&gt;&lt;span&gt;&amp;nbsp;&lt;/span&gt;&lt;br&gt;&lt;p class=&quot;p1&quot; style=&quot;margin: 0px ; font-stretch: normal ; font-size: 13px ; line-height: normal ; font-family: &amp;#34;helvetica neue&amp;#34;&quot;&gt;dsd.manager@airtel.com&lt;/p&gt;" style="rounded=0;whiteSpace=wrap;html=1;" parent="1" vertex="1">
          <mxGeometry x="5620" y="1110" width="270" height="80" as="geometry" />
        </mxCell>
        <mxCell id="u6CdAD8OhafTvienVMci-101" style="edgeStyle=orthogonalEdgeStyle;rounded=0;orthogonalLoop=1;jettySize=auto;html=1;entryX=0.5;entryY=0;entryDx=0;entryDy=0;entryPerimeter=0;fontSize=20;strokeColor=#000000;" parent="1" source="u6CdAD8OhafTvienVMci-94" target="u6CdAD8OhafTvienVMci-98" edge="1">
          <mxGeometry relative="1" as="geometry" />
        </mxCell>
        <mxCell id="nsUrWpc9NIpct42hvLu3-44" value="Yes" style="edgeLabel;html=1;align=center;verticalAlign=middle;resizable=0;points=[];" vertex="1" connectable="0" parent="u6CdAD8OhafTvienVMci-101">
          <mxGeometry x="-0.131" y="3" relative="1" as="geometry">
            <mxPoint x="1" as="offset" />
          </mxGeometry>
        </mxCell>
        <mxCell id="u6CdAD8OhafTvienVMci-94" value="&lt;font style=&quot;font-size: 21px&quot;&gt;Email Lands to&lt;/font&gt;&lt;span&gt;&amp;nbsp;&lt;/span&gt;&lt;br&gt;&lt;p class=&quot;p1&quot; style=&quot;margin: 0px ; font-stretch: normal ; font-size: 13px ; line-height: normal ; font-family: &amp;#34;helvetica neue&amp;#34;&quot;&gt;&lt;span style=&quot;color: rgba(0 , 0 , 0 , 0) ; font-family: monospace ; font-size: 0px&quot;&gt;%3CmxGraphModel%3E%3Croot%3E%3CmxCell%20id%3D%220%22%2F%3E%3CmxCell%20id%3D%221%22%20parent%3D%220%22%2F%3E%3CmxCell%20id%3D%222%22%20value%3D%22%26lt%3Bfont%20style%3D%26quot%3Bfont-size%3A%2021px%26quot%3B%26gt%3BEmail%20Lands%20to%26lt%3B%2Ffont%26gt%3B%26lt%3Bspan%26gt%3B%26amp%3Bnbsp%3B%26lt%3B%2Fspan%26gt%3B%26lt%3Bbr%26gt%3B%26lt%3Bp%20class%3D%26quot%3Bp1%26quot%3B%20style%3D%26quot%3Bmargin%3A%200px%20%3B%20font-stretch%3A%20normal%20%3B%20font-size%3A%2013px%20%3B%20line-height%3A%20normal%20%3B%20font-family%3A%20%26amp%3B%2334%3Bhelvetica%20neue%26amp%3B%2334%3B%26quot%3B%26gt%3Bdsd.manager%40airtel.com%26lt%3B%2Fp%26gt%3B%22%20style%3D%22rounded%3D0%3BwhiteSpace%3Dwrap%3Bhtml%3D1%3B%22%20vertex%3D%221%22%20parent%3D%221%22%3E%3CmxGeometry%20x%3D%225610%22%20y%3D%221340%22%20width%3D%22270%22%20height%3D%2280%22%20as%3D%22geometry%22%2F%3E%3C%2FmxCell%3E%3C%2Froot%3E%3C%2FmxGraphModel%3E&lt;/span&gt;&lt;span style=&quot;font-family: &amp;#34;helvetica neue&amp;#34;&quot;&gt;Cfm.bt@airtel.com&lt;/span&gt;&lt;br&gt;&lt;/p&gt;" style="rounded=0;whiteSpace=wrap;html=1;" parent="1" vertex="1">
          <mxGeometry x="6040" y="1220" width="270" height="80" as="geometry" />
        </mxCell>
        <mxCell id="u6CdAD8OhafTvienVMci-96" value="DSD Support Bin" style="shape=cylinder3;whiteSpace=wrap;html=1;boundedLbl=1;backgroundOutline=1;size=15;fontSize=17;" parent="1" vertex="1">
          <mxGeometry x="4860" y="1420" width="210" height="140" as="geometry" />
        </mxCell>
        <mxCell id="u6CdAD8OhafTvienVMci-97" value="DSD Manager Bin" style="shape=cylinder3;whiteSpace=wrap;html=1;boundedLbl=1;backgroundOutline=1;size=15;fontSize=17;" parent="1" vertex="1">
          <mxGeometry x="5240" y="1420" width="210" height="140" as="geometry" />
        </mxCell>
        <mxCell id="u6CdAD8OhafTvienVMci-98" value="CFM BT Bin" style="shape=cylinder3;whiteSpace=wrap;html=1;boundedLbl=1;backgroundOutline=1;size=15;fontSize=17;" parent="1" vertex="1">
          <mxGeometry x="5660" y="1420" width="210" height="140" as="geometry" />
        </mxCell>
      </root>
    </mxGraphModel>
  </diagram>
</mxfile>
